<svg xmlns="http://www.w3.org/2000/svg" xmlns:xlink="http://www.w3.org/1999/xlink" width="118.997" height="66.559" viewBox="0 0 118.997 66.559"><defs><linearGradient id="a" x1="0.227" y1="0.816" x2="1.386" y2="-0.332" gradientUnits="objectBoundingBox"><stop offset="0" stop-color="#195222"/><stop offset="0.504" stop-color="#d6c70a"/><stop offset="1" stop-color="#195222"/></linearGradient><linearGradient id="b" x1="-1.478" y1="2.223" x2="0.785" y2="0.258" xlink:href="#a"/><linearGradient id="c" y1="0.5" x2="1" y2="0.5" gradientUnits="objectBoundingBox"><stop offset="0" stop-color="#195222"/><stop offset="0.504" stop-color="#4d9021"/><stop offset="1" stop-color="#195222"/></linearGradient></defs><g transform="translate(-0.001)"><path d="M53.8,217.192a20.754,20.754,0,0,0,14.776-1.572c7.231-3.93,37.727-25.308,37.727-25.308l-6.288-4.716Z" transform="translate(-53.798 -185.596)" fill="url(#a)"/><path d="M400.279,204.459l20.678-14.619-5.816-4.244-21.064,14.776Z" transform="translate(-332.927 -185.596)" fill="url(#b)"/><path d="M335.264,217.893h-11.79L282.9,189.044l5.045-3.449Z" transform="translate(-241.732 -185.596)" fill="url(#c)"/><path d="M528.3,211.219,491.512,185.6l-4.334,3.04,20.559,15.824s10.184,6.131,14.114,6.759A17.6,17.6,0,0,0,528.3,211.219Z" transform="translate(-409.298 -185.596)" fill="url(#c)"/><path d="M261.324,294.358a9.622,9.622,0,0,1,2.949-4.653,10.045,10.045,0,0,1,5.541-2.776v7.426Z" transform="translate(-224.03 -268.72)" fill="url(#c)"/><path d="M326.452,294.342s0-2.177-2.828-4.928a7.981,7.981,0,0,0-5.661-2.5v7.426Z" transform="translate(-270.492 -268.704)" fill="url(#c)"/><path d="M0,0H8.489V8.017H0Z" transform="translate(47.472 27.391)" fill="url(#c)"/><path d="M0,0H8.49V8.017H0Z" transform="translate(37.294 27.391)" fill="url(#c)"/><path d="M7.356-16.849v7.277h.356a2.823,2.823,0,0,0,2.465-1.068,6.569,6.569,0,0,0,.976-3.151h.5v9.36h-.5a7.009,7.009,0,0,0-.666-2.5,2.869,2.869,0,0,0-1.18-1.312,4.486,4.486,0,0,0-1.951-.336v5.036A7.265,7.265,0,0,0,7.482-1.74,1.085,1.085,0,0,0,7.95-1.2a2.2,2.2,0,0,0,1.107.211h1.068a6.417,6.417,0,0,0,4.014-1.16,6.462,6.462,0,0,0,2.169-3.533H16.8L15.992,0H.541V-.488h.593A2.472,2.472,0,0,0,2.386-.765,1.2,1.2,0,0,0,2.914-1.4a5.431,5.431,0,0,0,.145-1.661v-11.76a9.372,9.372,0,0,0-.066-1.49A1.262,1.262,0,0,0,2.5-17.02a2.267,2.267,0,0,0-1.371-.369H.541v-.488H15.5v5.287H15a6.446,6.446,0,0,0-1.074-2.782,3.991,3.991,0,0,0-1.958-1.239A10.6,10.6,0,0,0,9.2-16.849ZM24.482.369,20.329-9.189a9.412,9.412,0,0,0-1.173-2.188,1.564,1.564,0,0,0-.9-.461v-.488h6.552v.488a1.2,1.2,0,0,0-.844.224.9.9,0,0,0-.316.686,5.9,5.9,0,0,0,.58,1.833l2.03,4.627,1.622-3.995a7.716,7.716,0,0,0,.7-2.426.84.84,0,0,0-.3-.666,1.719,1.719,0,0,0-1.048-.283v-.488h4.034v.488a1.646,1.646,0,0,0-.949.435,8.062,8.062,0,0,0-1.107,2.1L25.1.369ZM42.86-6.6H36.1A6.372,6.372,0,0,0,37.4-2.729,2.758,2.758,0,0,0,39.59-1.635a2.489,2.489,0,0,0,1.437-.442,5.577,5.577,0,0,0,1.384-1.589l.448.29A7.459,7.459,0,0,1,40.645-.481a4.769,4.769,0,0,1-2.808.85A4.676,4.676,0,0,1,33.684-1.74,7.441,7.441,0,0,1,32.55-5.959a7,7,0,0,1,1.668-4.911A5.139,5.139,0,0,1,38.127-12.7a4.235,4.235,0,0,1,3.25,1.536A7.011,7.011,0,0,1,42.86-6.6Zm-3.243-.883a12.153,12.153,0,0,0-.231-2.914,2.386,2.386,0,0,0-.719-1.2,1.1,1.1,0,0,0-.738-.237,1.3,1.3,0,0,0-1.121.672,5.767,5.767,0,0,0-.778,3.217v.461Zm9.9-4.838v2.795a9.018,9.018,0,0,1,2.149-2.538,3.185,3.185,0,0,1,1.78-.626,1.569,1.569,0,0,1,1.18.455,1.769,1.769,0,0,1,.442,1.285,2.01,2.01,0,0,1-.428,1.371A1.33,1.33,0,0,1,53.6-9.1a1.786,1.786,0,0,1-1.213-.448,7.4,7.4,0,0,0-.606-.5.578.578,0,0,0-.3-.079,1.107,1.107,0,0,0-.725.29,2.735,2.735,0,0,0-.817,1.279,8.965,8.965,0,0,0-.422,2.821V-2.9l.013.738a3.035,3.035,0,0,0,.092.962,1.048,1.048,0,0,0,.468.521,2.714,2.714,0,0,0,1.048.2V0H44.481V-.475a1.455,1.455,0,0,0,1.088-.442A4.1,4.1,0,0,0,45.853-2.9V-9.716a5.109,5.109,0,0,0-.105-1.345,1.06,1.06,0,0,0-.382-.541,2.035,2.035,0,0,0-.883-.237v-.488ZM62.859-8.6v5.537a5.633,5.633,0,0,0,.152,1.714,1.36,1.36,0,0,0,.593.6A2.369,2.369,0,0,0,64.8-.488h.593V0H56.043V-.488h.593a2.472,2.472,0,0,0,1.252-.277,1.2,1.2,0,0,0,.527-.633,5.431,5.431,0,0,0,.145-1.661v-11.76a5.878,5.878,0,0,0-.145-1.714,1.319,1.319,0,0,0-.587-.6,2.369,2.369,0,0,0-1.193-.257h-.593v-.488h9.347v.488H64.8a2.472,2.472,0,0,0-1.252.277,1.261,1.261,0,0,0-.541.633,5.431,5.431,0,0,0-.145,1.661v5.063h6.315v-5.062a5.878,5.878,0,0,0-.145-1.714,1.315,1.315,0,0,0-.593-.6,2.407,2.407,0,0,0-1.2-.257h-.58v-.488H75.99v.488h-.58a2.428,2.428,0,0,0-1.252.277,1.261,1.261,0,0,0-.541.633,5.431,5.431,0,0,0-.145,1.661v11.76a5.878,5.878,0,0,0,.145,1.714,1.315,1.315,0,0,0,.593.6,2.407,2.407,0,0,0,1.2.257h.58V0H66.656V-.488h.58a2.428,2.428,0,0,0,1.252-.277,1.261,1.261,0,0,0,.541-.633,5.431,5.431,0,0,0,.145-1.661V-8.6ZM84.19-1.819A6.5,6.5,0,0,1,80.143.171,2.39,2.39,0,0,1,78.39-.521a2.34,2.34,0,0,1-.7-1.734A3.4,3.4,0,0,1,78.9-4.792a22.956,22.956,0,0,1,5.287-3V-9.031a6,6,0,0,0-.152-1.76,1.418,1.418,0,0,0-.573-.633,1.722,1.722,0,0,0-.949-.27,2.428,2.428,0,0,0-1.411.382.674.674,0,0,0-.343.554,1.149,1.149,0,0,0,.369.686,1.688,1.688,0,0,1,.5,1.094,1.459,1.459,0,0,1-.481,1.1,1.758,1.758,0,0,1-1.259.455,2.01,2.01,0,0,1-1.391-.5,1.53,1.53,0,0,1-.56-1.173,2.732,2.732,0,0,1,.751-1.813,4.748,4.748,0,0,1,2.1-1.325,8.551,8.551,0,0,1,2.795-.461,4.62,4.62,0,0,1,2.775.745,3.492,3.492,0,0,1,1.325,1.615,10.464,10.464,0,0,1,.185,2.544v4.786a4.959,4.959,0,0,0,.066,1.061.636.636,0,0,0,.2.323.472.472,0,0,0,.3.105q.343,0,.7-.488l.4.316A4.808,4.808,0,0,1,88.165-.27a2.955,2.955,0,0,1-1.6.442,2.5,2.5,0,0,1-1.648-.494A2.239,2.239,0,0,1,84.19-1.819Zm0-.962V-6.908a7.7,7.7,0,0,0-2.373,2A2.439,2.439,0,0,0,81.3-3.467,1.51,1.51,0,0,0,81.738-2.4a1.2,1.2,0,0,0,.923.356A2.534,2.534,0,0,0,84.19-2.782ZM96-12.327v2.795a9.018,9.018,0,0,1,2.149-2.538,3.185,3.185,0,0,1,1.78-.626,1.569,1.569,0,0,1,1.18.455,1.769,1.769,0,0,1,.442,1.285,2.01,2.01,0,0,1-.428,1.371,1.33,1.33,0,0,1-1.035.488,1.786,1.786,0,0,1-1.213-.448,7.4,7.4,0,0,0-.606-.5.578.578,0,0,0-.3-.079,1.107,1.107,0,0,0-.725.29,2.735,2.735,0,0,0-.817,1.279A8.965,8.965,0,0,0,96-5.735V-2.9l.013.738a3.035,3.035,0,0,0,.092.962,1.048,1.048,0,0,0,.468.521,2.714,2.714,0,0,0,1.048.2V0H90.967V-.475a1.455,1.455,0,0,0,1.088-.442A4.1,4.1,0,0,0,92.338-2.9V-9.716a5.109,5.109,0,0,0-.105-1.345,1.06,1.06,0,0,0-.382-.541,2.035,2.035,0,0,0-.883-.237v-.488Zm18.853-5.55V-3.691a9.6,9.6,0,0,0,.079,1.7,1.063,1.063,0,0,0,.4.646,2.137,2.137,0,0,0,1.035.264v.435L111.164.369V-1.582A6.476,6.476,0,0,1,109.5-.04a3.334,3.334,0,0,1-1.655.409,4.243,4.243,0,0,1-3.731-2.109A7.59,7.59,0,0,1,103-5.946a8.854,8.854,0,0,1,.686-3.566,5.343,5.343,0,0,1,1.879-2.38,4.5,4.5,0,0,1,2.564-.8,3.462,3.462,0,0,1,1.569.343,5.265,5.265,0,0,1,1.463,1.2v-3.718a6.647,6.647,0,0,0-.119-1.7,1.131,1.131,0,0,0-.475-.567,2.606,2.606,0,0,0-1.187-.185v-.554Zm-3.691,8.358q-.976-1.872-2.386-1.872a1.214,1.214,0,0,0-.8.264,2.962,2.962,0,0,0-.8,1.437,11.783,11.783,0,0,0-.31,3.151,12.759,12.759,0,0,0,.343,3.454,3.355,3.355,0,0,0,.936,1.622,1.266,1.266,0,0,0,.831.25q1.16,0,2.188-1.819Z" transform="translate(0 54.7)" fill="#18110e"/><path d="M4.028-.2V0H.22V-.2H.462a1.007,1.007,0,0,0,.51-.113.489.489,0,0,0,.215-.258,2.213,2.213,0,0,0,.059-.677V-6.037a2.4,2.4,0,0,0-.059-.7A.537.537,0,0,0,.948-6.98a.965.965,0,0,0-.486-.1H.22v-.2H4.028v.2H3.787a1.007,1.007,0,0,0-.51.113.514.514,0,0,0-.22.258A2.213,2.213,0,0,0,3-6.037v4.791a2.3,2.3,0,0,0,.062.7A.554.554,0,0,0,3.3-.3a.965.965,0,0,0,.486.1ZM10.32-7.283l3.593,4.517V-5.9a1.481,1.481,0,0,0-.188-.886,1.039,1.039,0,0,0-.865-.3v-.2h2.406v.2a1.834,1.834,0,0,0-.62.153.616.616,0,0,0-.247.306,2.088,2.088,0,0,0-.089.728V.167h-.183L9.2-5.9v4.63a1.022,1.022,0,0,0,.287.849,1.053,1.053,0,0,0,.658.22h.172V0H7.737V-.2a1.169,1.169,0,0,0,.838-.247,1.156,1.156,0,0,0,.236-.822v-5.14L8.655-6.6a1.416,1.416,0,0,0-.408-.381,1.229,1.229,0,0,0-.51-.1v-.2Zm13.747,4.8,1.977-4.8h2.965v.2h-.236a1.019,1.019,0,0,0-.516.113.525.525,0,0,0-.215.252,2.185,2.185,0,0,0-.059.671v4.8a2.4,2.4,0,0,0,.059.7.536.536,0,0,0,.242.244.981.981,0,0,0,.489.1h.236V0h-3.8V-.2h.236a1.019,1.019,0,0,0,.516-.113.523.523,0,0,0,.215-.258,2.213,2.213,0,0,0,.059-.677v-5.4L23.438,0h-.129L20.474-6.6v5.129a4.53,4.53,0,0,0,.027.661.766.766,0,0,0,.3.438,1.262,1.262,0,0,0,.733.169V0H19.045V-.2h.075a1.14,1.14,0,0,0,.451-.078A.726.726,0,0,0,19.888-.5a1.025,1.025,0,0,0,.167-.392q.011-.059.011-.548V-6.048a2.334,2.334,0,0,0-.059-.69.54.54,0,0,0-.242-.242.981.981,0,0,0-.489-.1h-.231v-.2H22.02Zm12.689-4.9A3.637,3.637,0,0,1,39.583-6.37a3.651,3.651,0,0,1,1.088,2.7A3.884,3.884,0,0,1,39.86-1.23a3.606,3.606,0,0,1-3.035,1.4,3.682,3.682,0,0,1-3.04-1.332,3.857,3.857,0,0,1-.849-2.5,3.632,3.632,0,0,1,1.1-2.7A3.514,3.514,0,0,1,36.755-7.385Zm.064.344A1.641,1.641,0,0,0,35.3-6.021a5.455,5.455,0,0,0-.424,2.406,4.671,4.671,0,0,0,.655,2.755,1.494,1.494,0,0,0,1.278.623A1.533,1.533,0,0,0,37.733-.5a2.206,2.206,0,0,0,.736-1.1,6.1,6.1,0,0,0,.263-1.969,6.541,6.541,0,0,0-.269-2.162,2.1,2.1,0,0,0-.685-1.012A1.615,1.615,0,0,0,36.82-7.042Zm12.436,3.18a3.718,3.718,0,0,1,1.456.585,1.557,1.557,0,0,1,.6,1.268A1.678,1.678,0,0,1,50.653-.65,3.7,3.7,0,0,1,48.295,0h-3.7V-.2a1.672,1.672,0,0,0,.685-.094.549.549,0,0,0,.252-.244,2.225,2.225,0,0,0,.073-.741V-6a2.253,2.253,0,0,0-.073-.744.531.531,0,0,0-.255-.244,1.719,1.719,0,0,0-.682-.091v-.2h3.491a4.957,4.957,0,0,1,1.772.223,1.844,1.844,0,0,1,.822.666,1.649,1.649,0,0,1,.3.943,1.34,1.34,0,0,1-.381.937A2.738,2.738,0,0,1,49.256-3.862ZM47.3-4.007a2.769,2.769,0,0,0,1.125-.172,1.28,1.28,0,0,0,.556-.483,1.485,1.485,0,0,0,.193-.795,1.487,1.487,0,0,0-.191-.792,1.211,1.211,0,0,0-.545-.47A2.9,2.9,0,0,0,47.3-6.875Zm0,.419v2.336L47.3-.983a.594.594,0,0,0,.148.438.594.594,0,0,0,.438.148,1.676,1.676,0,0,0,.792-.191,1.305,1.305,0,0,0,.556-.553,1.69,1.69,0,0,0,.193-.808,1.785,1.785,0,0,0-.236-.916,1.274,1.274,0,0,0-.65-.567A3.527,3.527,0,0,0,47.3-3.588ZM59.028-.2V0H55.22V-.2h.242a1.007,1.007,0,0,0,.51-.113.489.489,0,0,0,.215-.258,2.213,2.213,0,0,0,.059-.677V-6.037a2.4,2.4,0,0,0-.059-.7.537.537,0,0,0-.239-.244.965.965,0,0,0-.486-.1H55.22v-.2h3.808v.2h-.242a1.007,1.007,0,0,0-.51.113.514.514,0,0,0-.22.258A2.213,2.213,0,0,0,58-6.037v4.791a2.3,2.3,0,0,0,.062.7A.554.554,0,0,0,58.3-.3a.965.965,0,0,0,.486.1Zm10.5-2.358L69.252,0H62.785V-.2h.242a1.007,1.007,0,0,0,.51-.113.489.489,0,0,0,.215-.258,2.213,2.213,0,0,0,.059-.677V-6.037a2.4,2.4,0,0,0-.059-.7.537.537,0,0,0-.239-.244.965.965,0,0,0-.486-.1h-.242v-.2h3.883v.2h-.317a1.007,1.007,0,0,0-.51.113.514.514,0,0,0-.22.258,2.212,2.212,0,0,0-.059.677V-1.4a2.352,2.352,0,0,0,.064.712.428.428,0,0,0,.252.228,2.555,2.555,0,0,0,.65.048h.607a2.056,2.056,0,0,0,.967-.2,1.8,1.8,0,0,0,.669-.645,5.221,5.221,0,0,0,.534-1.3ZM77.246-.2V0H73.438V-.2h.242a1.007,1.007,0,0,0,.51-.113A.489.489,0,0,0,74.4-.569a2.213,2.213,0,0,0,.059-.677V-6.037a2.4,2.4,0,0,0-.059-.7.537.537,0,0,0-.239-.244.965.965,0,0,0-.486-.1h-.242v-.2h3.808v.2H77a1.007,1.007,0,0,0-.51.113.514.514,0,0,0-.22.258,2.213,2.213,0,0,0-.059.677v4.791a2.3,2.3,0,0,0,.062.7.554.554,0,0,0,.242.244A.965.965,0,0,0,77-.2Zm8.129-1.875H82.8l-.306.709a1.578,1.578,0,0,0-.15.585.486.486,0,0,0,.247.451,2.078,2.078,0,0,0,.714.129V0H80.884V-.2a1.083,1.083,0,0,0,.645-.325,4.319,4.319,0,0,0,.623-1.1l2.6-5.812h.1l2.626,5.973A3.637,3.637,0,0,0,88.1-.392a.844.844,0,0,0,.516.193V0H85.1V-.2h.145a1.1,1.1,0,0,0,.6-.118.287.287,0,0,0,.118-.247.658.658,0,0,0-.032-.2q-.011-.048-.161-.4Zm-.183-.4L84.107-4.979,82.99-2.471Zm9.772-.849v2.041a2.253,2.253,0,0,0,.073.744.531.531,0,0,0,.255.244,1.719,1.719,0,0,0,.682.091V0H92.246V-.2a1.672,1.672,0,0,0,.685-.094.549.549,0,0,0,.252-.244,2.225,2.225,0,0,0,.073-.741V-6a2.253,2.253,0,0,0-.073-.744.531.531,0,0,0-.255-.244,1.719,1.719,0,0,0-.682-.091v-.2H95.63a7.385,7.385,0,0,1,1.934.183,1.948,1.948,0,0,1,1,.674,1.808,1.808,0,0,1,.387,1.152,1.721,1.721,0,0,1-.58,1.332,2.4,2.4,0,0,1-1.037.5L99.084-.978a3.727,3.727,0,0,0,.489.6.91.91,0,0,0,.51.183V0H97.789L95.442-3.319Zm0-3.572V-3.7h.306a3.423,3.423,0,0,0,1.117-.137,1.113,1.113,0,0,0,.583-.494,1.809,1.809,0,0,0,.212-.932,1.7,1.7,0,0,0-.389-1.23,1.7,1.7,0,0,0-1.254-.4ZM107.314-.2V0h-3.808V-.2h.242a1.007,1.007,0,0,0,.51-.113.489.489,0,0,0,.215-.258,2.213,2.213,0,0,0,.059-.677V-6.037a2.4,2.4,0,0,0-.059-.7.537.537,0,0,0-.239-.244.965.965,0,0,0-.486-.1h-.242v-.2h3.808v.2h-.242a1.007,1.007,0,0,0-.51.113.514.514,0,0,0-.22.258,2.213,2.213,0,0,0-.059.677v4.791a2.3,2.3,0,0,0,.062.7.554.554,0,0,0,.242.244.965.965,0,0,0,.486.1Zm8.129-1.875H112.87l-.306.709a1.578,1.578,0,0,0-.15.585.486.486,0,0,0,.247.451,2.078,2.078,0,0,0,.714.129V0h-2.422V-.2a1.083,1.083,0,0,0,.645-.325,4.319,4.319,0,0,0,.623-1.1l2.6-5.812h.1l2.626,5.973a3.637,3.637,0,0,0,.618,1.069.844.844,0,0,0,.516.193V0h-3.523V-.2h.145a1.1,1.1,0,0,0,.6-.118.287.287,0,0,0,.118-.247.658.658,0,0,0-.032-.2q-.011-.048-.161-.4Zm-.183-.4-1.085-2.508-1.117,2.508Z" transform="translate(0.001 66.393)" fill="#18110e"/></g></svg>